<svg width="305" height="305" viewBox="0 0 305 305" fill="none" xmlns="http://www.w3.org/2000/svg">
<g clip-path="url(#clip0_1_22)">
<path d="M152.458 304.916C236.658 304.916 304.916 236.658 304.916 152.458C304.916 68.2577 236.658 0 152.458 0C68.2577 0 0 68.2577 0 152.458C0 236.658 68.2577 304.916 152.458 304.916Z" fill="url(#paint0_diamond_1_22)"/>
<path d="M151.79 41L128.489 43.1016C126.604 43.1016 125.074 44.2882 125.074 45.7548L126.702 98.3468C126.702 99.8138 128.232 101 130.117 101L138.602 101.63L122 125.063H128.121L142.884 104.468L160.406 104.441L175.38 125.063H182L165.398 101.63L173.883 101C175.768 101 177.298 99.8138 177.298 98.3468L178.926 45.7548C178.926 44.2882 177.397 43.1016 175.511 43.1016L151.79 41ZM132.587 47.1734H171.413C172.694 47.1734 173.725 48.2004 173.725 49.4588V73.3905C173.725 74.6494 172.694 75.676 171.413 75.676H132.587C131.307 75.676 130.275 74.6494 130.275 73.3905V49.4588C130.275 48.2004 131.307 47.1734 132.587 47.1734ZM138.287 84.4501C141.087 84.4501 143.357 86.72 143.357 89.5201C143.357 92.3203 141.087 94.5902 138.287 94.5902C135.487 94.5902 133.217 92.3203 133.217 89.5201C133.217 86.72 135.487 84.4501 138.287 84.4501ZM165.187 84.4501C167.987 84.4501 170.257 86.72 170.257 89.5201C170.257 92.3203 167.987 94.5902 165.187 94.5902C162.386 94.5902 160.117 92.3203 160.117 89.5201C160.117 86.72 162.386 84.4501 165.187 84.4501ZM142.464 111.665C142.108 111.665 141.807 112.032 141.807 112.48V112.979C141.807 113.427 142.108 113.767 142.464 113.767H161.536C161.891 113.767 162.193 113.427 162.193 112.979V112.48C162.193 112.032 161.891 111.665 161.536 111.665H142.464ZM136.238 120.65C135.65 120.65 135.161 121.016 135.161 121.464V121.963C135.161 122.411 135.65 122.778 136.238 122.778H167.762C168.351 122.778 168.839 122.411 168.839 121.963V121.464C168.839 121.016 168.351 120.65 167.762 120.65H136.238Z" fill="white"/>
<path d="M74.1232 241C68.1305 241 63.9453 239.757 61.5671 237.27C59.1889 234.784 58 230.672 58 224.934V149.767C58 145.655 59.1653 142.499 61.4957 140.299C63.8262 138.1 66.7037 137 70.1281 137H97.3806L100.948 156.366H81.1147C79.8781 156.366 79.2598 157.035 79.2598 158.374V219.626C79.2598 220.965 79.8781 221.634 81.1147 221.634H100.948L97.2379 241H74.1232ZM113.932 137H136.048V221.634H143.039V241H108.082V221.634H114.788V156.366H106.227L113.932 137ZM172.432 155.218C171.195 155.218 170.577 155.887 170.577 157.226V220.63C170.577 221.395 170.696 221.945 170.934 222.28C171.172 222.615 171.719 222.782 172.575 222.782H180.137C180.993 222.782 181.54 222.615 181.778 222.28C182.016 221.945 182.135 221.395 182.135 220.63V157.226C182.135 155.887 181.516 155.218 180.28 155.218H172.432ZM149.745 151.345C149.745 147.233 150.887 143.814 153.17 141.088C155.453 138.363 158.972 137 163.728 137H189.126C193.882 137 197.402 138.363 199.685 141.088C201.968 143.814 203.109 147.233 203.109 151.345V226.655C203.109 230.767 201.968 234.186 199.685 236.912C197.402 239.637 193.882 241 189.126 241H163.728C158.972 241 155.453 239.637 153.17 236.912C150.887 234.186 149.745 230.767 149.745 226.655V151.345ZM217.52 137H239.636V221.634H246.627V241H211.67V221.634H218.376V156.366H209.815L217.52 137Z" fill="white"/>
</g>
<defs>
<radialGradient id="paint0_diamond_1_22" cx="0" cy="0" r="1" gradientUnits="userSpaceOnUse" gradientTransform="translate(152.458) scale(152.458)">
<stop offset="0.9" stop-color="#2D92EF"/>
</radialGradient>
<clipPath id="clip0_1_22">
<rect width="304.916" height="304.916" fill="white"/>
</clipPath>
</defs>
</svg>
